<svg width="32" height="32" viewBox="0 0 32 32" fill="none" xmlns="http://www.w3.org/2000/svg">
  <!-- Background -->
  <rect width="32" height="32" rx="7" fill="#1E1B4B"/>

  <!-- Isometric cargo box — top face -->
  <polygon points="16,4 27.5,10.5 16,17 4.5,10.5" fill="#A5B4FC"/>

  <!-- Right face -->
  <polygon points="27.5,10.5 27.5,22.5 16,29 16,17" fill="#312E81"/>

  <!-- Left face -->
  <polygon points="4.5,10.5 16,17 16,29 4.5,22.5" fill="#4338CA"/>

  <!-- Package crease lines on top face -->
  <line x1="16" y1="4" x2="16" y2="17" stroke="white" stroke-width="0.8" stroke-opacity="0.35"/>
  <line x1="4.5" y1="10.5" x2="27.5" y2="10.5" stroke="white" stroke-width="0.8" stroke-opacity="0.35"/>

  <!-- Edge outlines for depth -->
  <polygon points="16,4 27.5,10.5 16,17 4.5,10.5" fill="none" stroke="#C7D2FE" stroke-width="0.5" stroke-opacity="0.4"/>
  <line x1="27.5" y1="10.5" x2="27.5" y2="22.5" stroke="#C7D2FE" stroke-width="0.5" stroke-opacity="0.3"/>
  <line x1="4.5"  y1="10.5" x2="4.5"  y2="22.5" stroke="#C7D2FE" stroke-width="0.5" stroke-opacity="0.3"/>
  <line x1="16"   y1="17"   x2="16"   y2="29"   stroke="#C7D2FE" stroke-width="0.5" stroke-opacity="0.3"/>
  <line x1="27.5" y1="22.5" x2="16"   y2="29"   stroke="#C7D2FE" stroke-width="0.5" stroke-opacity="0.3"/>
  <line x1="4.5"  y1="22.5" x2="16"   y2="29"   stroke="#C7D2FE" stroke-width="0.5" stroke-opacity="0.3"/>
</svg>
